<?xml version="1.0" standalone="no"?><!DOCTYPE svg PUBLIC "-//W3C//DTD SVG 1.1//EN" "http://www.w3.org/Graphics/SVG/1.1/DTD/svg11.dtd"><svg t="1587570600632" class="icon" viewBox="0 0 1024 1024" version="1.1" xmlns="http://www.w3.org/2000/svg" p-id="1265" xmlns:xlink="http://www.w3.org/1999/xlink" width="200" height="200"><defs><style type="text/css"></style></defs><path d="M1000.7956 359.920402c-17.526241-65.903606-61.761093-130.706857-63.702896-133.534239-9.20591-13.392554-27.523582-16.773056-40.913194-7.564204-12.474611 8.58218-16.2523 25.066908-9.26181 38.106407l-0.114743 0.050017c0.535467 0.788489 1.047397 1.59169 1.579921 2.383121 0.079437 0.123569 0.147107 0.253022 0.232428 0.376592 0.020595 0.035306 0.179469 0.264791 0.438377 0.653152 1.188618 1.779985 2.359585 3.577624 3.521724 5.378205 3.321659 5.172257 8.440957 13.395497 14.289903 23.681166 0.764952 1.359261 1.541674 2.706755 2.291915 4.074843 12.356926 22.186566 27.144048 52.446325 34.890664 81.958784 1.132718 3.61293 2.230131 7.24057 3.280469 10.891748 2.286031 7.976102 4.401419 16.03164 6.269669 24.184269 27.099915 117.946859 6.637435 239.391907-57.609755 341.957336-64.244248 102.565428-164.582487 173.970809-282.538174 201.06484-117.952744 27.099915-239.394849 6.637435-341.960277-57.606813s-173.970809-164.585429-201.06484-282.541116c-27.094031-117.949802-6.634492-239.394849 57.609755-341.957336 64.24719-102.565428 164.585429-173.973751 282.538174-201.06484 69.122291-15.87865 139.439085-15.399084 206.457757 0.623731 44.276043 10.591651 87.107502 27.964901 127.202786 51.925568 2.774424 1.6623 5.545906 3.33637 8.296793 5.060456l0.079437-0.126512c13.595561 7.61422 30.909968 3.321659 39.271488-10.026763 8.626311-13.772088 4.45732-31.927943-9.314768-40.551313-0.597251-0.37365-3.901258-2.427253-9.303-5.557675C535.015981-69.782878 226.08106 4.111541 78.171597 240.234746c-150.089579 239.60374-77.522059 555.51444 162.084623 705.604018 239.606682 150.089579 555.51444 77.519117 705.604018-162.087565C1028.316241 652.11463 1043.532912 497.461816 1000.7956 359.920402zM774.872743 316.268089l-262.187493 339.691899-6.39618 8.285025-8.429189-6.184347-221.071292-162.184655c-13.0954-9.611923-31.513103-6.78454-41.125027 6.316743-9.614865 13.104226-6.78454 31.513103 6.316743 41.122085l240.671731 176.568706 11.577263 8.493915c4.954539 2.356643 10.473966 3.712962 16.322911 3.712962 9.491297 0 18.152913-3.48936 24.825653-9.229447l9.391264-12.171572 276.683344-358.468542c9.929673-12.862972 7.549494-31.339518-5.313478-41.266249C803.276021 301.033765 784.802417 303.40806 774.872743 316.268089z" p-id="1266"></path></svg>