<?xml version="1.0" standalone="no"?><!DOCTYPE svg PUBLIC "-//W3C//DTD SVG 1.1//EN" "http://www.w3.org/Graphics/SVG/1.1/DTD/svg11.dtd"><svg t="1585587584359" class="icon" viewBox="0 0 1024 1024" version="1.1" xmlns="http://www.w3.org/2000/svg" p-id="2396" xmlns:xlink="http://www.w3.org/1999/xlink" width="200" height="200"><defs><style type="text/css"></style></defs><path d="M396.8 695.466667c8.533333 4.266667 21.333333 4.266667 29.866667 4.266666h379.733333c55.466667 0 106.666667-38.4 123.733333-89.6l76.8-256c12.8-38.4 4.266667-81.066667-21.333333-115.2-25.6-34.133333-59.733333-51.2-102.4-51.2H375.466667c-25.6 0-46.933333 8.533333-64 17.066667l-25.6-115.2C277.333333 38.4 230.4 4.266667 179.2 4.266667h-128c-25.6 0-42.666667 17.066667-42.666667 42.666666s17.066667 42.666667 42.666667 42.666667h128c8.533333 0 17.066667 8.533333 21.333333 17.066667l85.333334 413.866666 17.066666 76.8c4.266667 17.066667 12.8 34.133333 21.333334 51.2l-29.866667 59.733334c-17.066667 34.133333-12.8 72.533333 4.266667 102.4 17.066667 25.6 42.666667 42.666667 76.8 46.933333-17.066667 17.066667-25.6 38.4-25.6 64 0 51.2 42.666667 98.133333 98.133333 98.133333s98.133333-42.666667 98.133333-98.133333c0-25.6-8.533333-46.933333-25.6-64h221.866667c-17.066667 17.066667-25.6 38.4-25.6 64 0 51.2 42.666667 98.133333 98.133333 98.133333s98.133333-42.666667 98.133334-98.133333c0-25.6-8.533333-46.933333-25.6-64h46.933333c25.6 0 42.666667-17.066667 42.666667-42.666667s-17.066667-42.666667-42.666667-42.666666H388.266667c-8.533333 0-17.066667-4.266667-17.066667-8.533334s-4.266667-12.8 0-21.333333l25.6-46.933333z m409.6 260.266666c-17.066667 0-34.133333-12.8-34.133333-34.133333s12.8-34.133333 34.133333-34.133333 34.133333 12.8 34.133333 34.133333-12.8 34.133333-34.133333 34.133333z m-362.666667 0c-17.066667 0-34.133333-12.8-34.133333-34.133333s12.8-34.133333 34.133333-34.133333 34.133333 12.8 34.133334 34.133333-17.066667 34.133333-34.133334 34.133333zM332.8 324.266667c0-12.8 4.266667-25.6 8.533333-34.133334 8.533333-8.533333 21.333333-17.066667 34.133334-17.066666h507.733333c12.8 0 25.6 4.266667 34.133333 17.066666 8.533333 12.8 8.533333 25.6 8.533334 38.4l-76.8 256c-4.266667 17.066667-21.333333 29.866667-42.666667 29.866667H426.666667c-21.333333 0-38.4-12.8-42.666667-34.133333l-8.533333-42.666667-8.533334-46.933333-34.133333-166.4z" p-id="2397"></path></svg>